<?xml version="1.0" encoding="UTF-8"?>
<svg width="294px" height="176px" viewBox="0 0 294 176" version="1.1" xmlns="http://www.w3.org/2000/svg" xmlns:xlink="http://www.w3.org/1999/xlink">
    <!-- Generator: Sketch 51.1 (57501) - http://www.bohemiancoding.com/sketch -->
    <title>Group 23</title>
    <desc>Created with Sketch.</desc>
    <defs>
        <polygon id="path-1" points="21 240 271 240 271 0 21 0"></polygon>
        <linearGradient x1="0%" y1="0%" x2="100%" y2="100%" id="linearGradient-3">
            <stop stop-color="#FAD961" offset="0%"></stop>
            <stop stop-color="#F7A41C" offset="100%"></stop>
        </linearGradient>
    </defs>
    <g id="Page-1" stroke="none" stroke-width="1" fill="none" fill-rule="evenodd">
        <g id="Styleguide-Copy" transform="translate(-152.000000, -408.000000)">
            <g id="Group-23" transform="translate(152.000000, 355.000000)">
                <g id="Group" transform="translate(0.000000, 184.000000)" fill="#FEFEFE">
                    <path d="M18.5218822,11.8689797 C17.6398878,11.1543164 16.7578934,10.6259397 15.8758991,10.2821562 C14.9939047,9.93837269 14.1391008,9.76732768 13.313187,9.76732768 C12.2646503,9.76732768 11.4098465,10.0145809 10.7487756,10.5090872 C10.0877046,11.0035936 9.75631947,11.6488228 9.75631947,12.4464683 C9.75631947,12.9951671 9.92116235,13.4490291 10.2525475,13.8063608 C10.5839327,14.1619989 11.0172825,14.4719122 11.5559959,14.7310199 C12.0930098,14.9935148 12.6996996,15.2204458 13.3743658,15.4118129 C14.0507315,15.6048736 14.7186001,15.809789 15.379671,16.0299459 C18.0256542,16.9105737 19.9629829,18.0841795 21.1882583,19.552457 C22.4152332,21.0224279 23.0287206,22.9377933 23.0287206,25.3002466 C23.0287206,26.8938442 22.7602137,28.3367189 22.2231997,29.6254838 C21.6844864,30.9176357 20.8993584,32.0235009 19.8661165,32.9430795 C18.8328745,33.8626581 17.5651137,34.5773214 16.0628343,35.0853759 C14.5588554,35.5934304 12.8577448,35.8474576 10.9561037,35.8474576 C7.01346986,35.8474576 3.36143527,34.6806258 0,32.3469623 L3.47359641,25.8353974 C4.68527657,26.9073923 5.88336144,27.7050378 7.06955042,28.2249469 C8.25404,28.748243 9.4266337,29.0090443 10.5839327,29.0090443 C11.9060746,29.0090443 12.8917331,28.7059052 13.5392087,28.1030138 C14.1866844,27.498429 14.5112719,26.810862 14.5112719,26.0420062 C14.5112719,25.5762896 14.4297002,25.169846 14.2631579,24.8260625 C14.098315,24.4822789 13.821311,24.1672851 13.437244,23.8793876 C13.0497783,23.5914901 12.5467526,23.3239147 11.9281669,23.074968 C11.3078819,22.8294083 10.5567421,22.5550589 9.67304832,22.2519198 C8.62621105,21.9233779 7.59976671,21.5592721 6.5937153,21.1596026 C5.58766389,20.7616266 4.69207421,20.2315564 3.90694626,19.5744726 C3.12011889,18.9140018 2.48623853,18.0841795 2.00530517,17.0799252 C1.5226724,16.0773643 1.28135601,14.8072281 1.28135601,13.2695166 C1.28135601,11.731805 1.53626769,10.3380422 2.04609104,9.08653467 C2.55591438,7.83841417 3.27136648,6.76641922 4.19584615,5.87393685 C5.11862641,4.98145448 6.24873483,4.28711336 7.58617142,3.792607 C8.923608,3.29810064 10.4173904,3.05084746 12.0726169,3.05084746 C13.6156822,3.05084746 15.2284234,3.26423034 16.909141,3.6909961 C18.5915581,4.11606835 20.2025999,4.74097536 21.7473646,5.56402362 L18.5218822,11.8689797 Z" id="Fill-1"></path>
                    <path d="M26.8668407,13.336047 L34.3907048,13.336047 L34.3907048,15.9122114 C36.440804,13.9767249 38.7403319,13.0081409 41.2892886,13.0081409 C44.4498582,13.0081409 46.8604331,14.3180835 48.5227219,16.9362872 C50.2123453,14.2894969 52.6229203,12.9661017 55.7544468,12.9661017 C56.7521617,12.9661017 57.6934989,13.1107167 58.5801668,13.3965835 C59.4668347,13.6824503 60.2287883,14.1331109 60.8660274,14.7468838 C61.5032666,15.3606566 62.0089577,16.1594021 62.3848093,17.1414387 C62.757244,18.1217937 62.9451697,19.3089817 62.9451697,20.6996397 L62.9451697,34.3220339 L55.4213057,34.3220339 L55.4213057,23.9719738 C55.4213057,22.9075404 55.344427,22.0364874 55.1940863,21.3554518 C55.0403289,20.6727346 54.8182348,20.1413586 54.5278041,19.7579608 C54.2373734,19.3779261 53.8973986,19.1172828 53.5095882,18.9810757 C53.1217777,18.8448685 52.7066327,18.7759242 52.2624445,18.7759242 C49.8518695,18.7759242 48.6474363,20.5096223 48.6474363,23.9719738 L48.6474363,34.3220339 L41.1235722,34.3220339 L41.1235722,23.9719738 C41.1235722,22.9075404 41.0535272,22.0297611 40.9151455,21.3335914 C40.7767638,20.6391032 40.5751707,20.0858668 40.313783,19.6772454 C40.0489785,19.2669425 39.7107122,18.9878019 39.2938587,18.8364607 C38.8787136,18.6884826 38.3935234,18.612812 37.8399967,18.612812 C37.3684739,18.612812 36.9259941,18.6817563 36.510849,18.8179634 C36.0939955,18.9541706 35.7266861,19.2198585 35.4089207,19.6150274 C35.0894469,20.0118778 34.8400182,20.5567063 34.6606345,21.2511944 C34.4795424,21.9473642 34.3907048,22.8537301 34.3907048,23.9719738 L34.3907048,34.3220339 L26.8668407,34.3220339 L26.8668407,13.336047 Z" id="Fill-3"></path>
                    <path d="M74.5058544,23.5802209 C74.5058544,24.2808114 74.6291048,24.9313598 74.8756056,25.5335915 C75.1221063,26.1340977 75.4564019,26.6604034 75.8818689,27.1073319 C76.3056476,27.5559859 76.812156,27.9045556 77.4013941,28.1564921 C77.9906322,28.4084286 78.6271444,28.5343968 79.3126191,28.5343968 C79.9693916,28.5343968 80.5907086,28.4084286 81.1816351,28.1564921 C81.7691848,27.9045556 82.2756932,27.5559859 82.7011602,27.1073319 C83.1249389,26.6604034 83.4676763,26.1410001 83.7276839,25.5542986 C83.9876915,24.9675972 84.1176954,24.3360304 84.1176954,23.6647749 C84.1176954,22.9935194 83.9876915,22.3567758 83.7276839,21.7545441 C83.4676763,21.1540379 83.1249389,20.6277322 82.7011602,20.1790782 C82.2756932,19.7338753 81.7691848,19.3818544 81.1816351,19.1316435 C80.5907086,18.8779814 79.9693916,18.7520132 79.3126191,18.7520132 C78.6271444,18.7520132 77.9906322,18.8779814 77.4013941,19.1316435 C76.812156,19.3818544 76.3056476,19.7338753 75.8818689,20.1790782 C75.4564019,20.6277322 75.1221063,21.1402331 74.8756056,21.7131298 C74.6291048,22.2860265 74.5058544,22.9089654 74.5058544,23.5802209 Z M83.8711946,12.8763709 L91.3472585,12.8763709 L91.3472585,34.4117647 L83.8711946,34.4117647 L83.8711946,32.0200936 C82.2824466,34.063195 80.1331627,35.0847458 77.4233428,35.0847458 C75.8886224,35.0847458 74.4788407,34.7965718 73.1923093,34.2236751 C71.9040897,33.6507784 70.7813294,32.8449268 69.8240285,31.8095713 C68.8650393,30.7742158 68.1187836,29.5576731 67.5835731,28.1564921 C67.0500509,26.7587622 66.7832898,25.2333384 66.7832898,23.5802209 C66.7832898,22.0409924 67.0432975,20.5794156 67.5633127,19.1937649 C68.083328,17.8081141 68.8093234,16.5984738 69.7412988,15.5631183 C70.6715859,14.5277629 71.7808393,13.7081064 73.0673706,13.1076003 C74.3555903,12.5053685 75.7788789,12.2033898 77.3406131,12.2033898 C79.9693916,12.2033898 82.1456894,13.1421121 83.8711946,15.0161055 L83.8711946,12.8763709 Z" id="Fill-5"></path>
                    <path d="M96.7206266,13.4310999 L104.299674,13.4310999 L104.299674,16.9758433 C105.108519,15.6832178 106.099784,14.6907591 107.271749,14.0002021 C108.443713,13.3113802 109.811865,12.9661017 111.374485,12.9661017 L112.025003,12.9661017 C112.260772,12.9661017 112.532682,12.9938628 112.840731,13.0493849 L112.840731,20.3522852 C111.835698,19.8456454 110.746339,19.5940606 109.574375,19.5940606 C107.815568,19.5940606 106.497323,20.1197862 105.617919,21.1764424 C104.738516,22.2313636 104.299674,23.7721038 104.299674,25.798663 L104.299674,35.0847458 L96.7206266,35.0847458 L96.7206266,13.4310999 Z" id="Fill-7"></path>
                    <polygon id="Fill-9" points="124.055801 19.4189787 124.055801 34.3220339 116.786441 34.3220339 116.786441 19.4189787 114.375979 19.4189787 114.375979 13.2042964 116.786441 13.2042964 116.786441 6.86440678 124.055801 6.86440678 124.055801 13.2042964 128.193211 13.2042964 128.193211 19.4189787"></polygon>
                    <polygon id="Fill-11" points="146.969547 3.81355932 146.969547 28.1994251 156.5953 28.1994251 156.5953 35.0847458 138.939948 35.0847458 138.939948 3.81355932"></polygon>
                    <path d="M159.39487,34.3220339 L166.886163,34.3220339 L166.886163,13.1202348 L159.39487,13.1202348 L159.39487,34.3220339 Z M158.898172,4.97758875 C158.898172,4.39827677 159.008739,3.8546409 159.229871,3.34498226 C159.451004,2.83532363 159.753785,2.3885229 160.139917,2.00118234 C160.526049,1.6172395 160.975118,1.31314319 161.485424,1.09229111 C161.99573,0.871439039 162.540057,0.762711864 163.120104,0.762711864 C163.700152,0.762711864 164.244479,0.871439039 164.754785,1.09229111 C165.265091,1.31314319 165.712459,1.6172395 166.100292,2.00118234 C166.486423,2.3885229 166.789205,2.83532363 167.010338,3.34498226 C167.23147,3.8546409 167.342037,4.39827677 167.342037,4.97758875 C167.342037,5.55520186 167.23147,6.1005366 167.010338,6.61019523 C166.789205,7.11985386 166.486423,7.5666546 166.100292,7.9522963 C165.712459,8.33963686 165.265091,8.64203431 164.754785,8.86288638 C164.244479,9.08373846 163.700152,9.19246563 163.120104,9.19246563 C162.540057,9.19246563 161.99573,9.08373846 161.485424,8.86288638 C160.975118,8.64203431 160.526049,8.33963686 160.139917,7.9522963 C159.753785,7.5666546 159.451004,7.11985386 159.229871,6.61019523 C159.008739,6.1005366 158.898172,5.55520186 158.898172,4.97758875 Z" id="Fill-13"></path>
                    <path d="M187.300261,24.0892633 C187.300261,23.4088905 187.181644,22.7634982 186.944411,22.1548355 C186.707177,21.5444239 186.377325,21.0109696 185.956479,20.5562216 C185.534008,20.1049717 185.046542,19.7429224 184.492455,19.4718227 C183.939993,19.202472 183.33391,19.0677966 182.674206,19.0677966 C182.043749,19.0677966 181.449041,19.1954758 180.896579,19.4525833 C180.342492,19.7061928 179.861525,20.061246 179.453678,20.5142449 C179.044207,20.9689928 178.715979,21.5024471 178.465747,22.1111098 C178.213889,22.7215214 178.088773,23.3669137 178.088773,24.0472866 C178.088773,24.7276595 178.20739,25.3660557 178.446248,25.960726 C178.681857,26.5571455 179.010084,27.0748585 179.432555,27.5156142 C179.855026,27.9546209 180.348992,28.3096741 180.916077,28.5772758 C181.483163,28.8501245 182.082747,28.9830508 182.714828,28.9830508 C183.346909,28.9830508 183.939993,28.8553716 184.492455,28.6000132 C185.046542,28.3446547 185.527509,27.9896015 185.93698,27.5366026 C186.344827,27.0836037 186.673054,26.5571455 186.924912,25.960726 C187.175145,25.3660557 187.300261,24.7416517 187.300261,24.0892633 Z M178.615189,0 L178.615189,15.2608332 C180.367587,13.4096922 182.55893,12.4824172 185.187528,12.4824172 C186.749155,12.4824172 188.17741,12.7807134 189.479047,13.3738967 C190.778996,13.9687845 191.888173,14.7699229 192.80489,15.7807208 C193.723296,16.7881097 194.442488,17.9778853 194.962468,19.3449342 C195.482447,20.7136875 195.744125,22.172782 195.744125,23.7205131 C195.744125,25.2972216 195.475694,26.7767707 194.942209,28.1574559 C194.408723,29.5415503 193.660831,30.7432578 192.703596,31.7659876 C191.742984,32.7887174 190.615236,33.5983785 189.315287,34.1915617 C188.015338,34.7864496 186.60903,35.0847458 185.104804,35.0847458 C182.36647,35.0847458 180.203828,34.0756524 178.615189,32.055761 L178.615189,34.4199714 L171.180157,34.4199714 L171.180157,0 L178.615189,0 Z" id="Fill-15"></path>
                    <path d="M199.582245,13.4310999 L207.160381,13.4310999 L207.160381,16.9758433 C207.969312,15.6832178 208.960683,14.6907591 210.134494,14.0002021 C211.306584,13.3113802 212.673161,12.9661017 214.237668,12.9661017 L214.886534,12.9661017 C215.122329,12.9661017 215.395989,12.9938628 215.70235,13.0493849 L215.70235,20.3522852 C214.69721,19.8456454 213.607735,19.5940606 212.437366,19.5940606 C210.678371,19.5940606 209.359985,20.1197862 208.480488,21.1764424 C207.599269,22.2313636 207.160381,23.7721038 207.160381,25.798663 L207.160381,35.0847458 L199.582245,35.0847458 L199.582245,13.4310999 Z" id="Fill-16"></path>
                    <path d="M226.495411,23.5802209 C226.495411,24.2808114 226.618661,24.9313598 226.865162,25.5335915 C227.111662,26.1340977 227.445958,26.6604034 227.871425,27.1073319 C228.295204,27.5559859 228.801712,27.9045556 229.39095,28.1564921 C229.9785,28.4084286 230.615012,28.5343968 231.302175,28.5343968 C231.957259,28.5343968 232.580265,28.4084286 233.169503,28.1564921 C233.758741,27.9045556 234.265249,27.5559859 234.690716,27.1073319 C235.112807,26.6604034 235.457232,26.1410001 235.71724,25.5542986 C235.977248,24.9675972 236.107252,24.3360304 236.107252,23.6647749 C236.107252,22.9935194 235.977248,22.3567758 235.71724,21.7545441 C235.457232,21.1540379 235.112807,20.6277322 234.690716,20.1790782 C234.265249,19.7338753 233.758741,19.3818544 233.169503,19.1316435 C232.580265,18.8779814 231.957259,18.7520132 231.302175,18.7520132 C230.615012,18.7520132 229.9785,18.8779814 229.39095,19.1316435 C228.801712,19.3818544 228.295204,19.7338753 227.871425,20.1790782 C227.445958,20.6277322 227.111662,21.1402331 226.865162,21.7131298 C226.618661,22.2860265 226.495411,22.9089654 226.495411,23.5802209 Z M235.860751,12.8763709 L243.336815,12.8763709 L243.336815,34.4117647 L235.860751,34.4117647 L235.860751,32.0200936 C234.272003,34.063195 232.122719,35.0847458 229.412899,35.0847458 C227.87649,35.0847458 226.466708,34.7965718 225.181865,34.2236751 C223.893646,33.6507784 222.770886,32.8449268 221.813585,31.8095713 C220.852907,30.7742158 220.10834,29.5576731 219.573129,28.1564921 C219.039607,26.7587622 218.772846,25.2333384 218.772846,23.5802209 C218.772846,22.0409924 219.032854,20.5794156 219.554557,19.1937649 C220.072884,17.8081141 220.79888,16.5984738 221.730855,15.5631183 C222.661142,14.5277629 223.770395,13.7081064 225.056927,13.1076003 C226.345146,12.5053685 227.768435,12.2033898 229.330169,12.2033898 C231.957259,12.2033898 234.135245,13.1421121 235.860751,15.0161055 L235.860751,12.8763709 Z" id="Fill-17"></path>
                    <path d="M247.942559,13.4310999 L255.520695,13.4310999 L255.520695,16.9758433 C256.329626,15.6832178 257.320997,14.6907591 258.494807,14.0002021 C259.666897,13.3113802 261.033474,12.9661017 262.597981,12.9661017 L263.246848,12.9661017 C263.482642,12.9661017 263.756302,12.9938628 264.062663,13.0493849 L264.062663,20.3522852 C263.057523,19.8456454 261.968048,19.5940606 260.797679,19.5940606 C259.038684,19.5940606 257.720299,20.1197862 256.840801,21.1764424 C255.959583,22.2313636 255.520695,23.7721038 255.520695,25.798663 L255.520695,35.0847458 L247.942559,35.0847458 L247.942559,13.4310999 Z" id="Fill-18"></path>
                    <polygon id="Fill-19" points="275.835084 31.4186818 265.597911 12.9661017 274.267183 12.9661017 279.922827 23.9208765 285.413874 12.9661017 294 12.9661017 276.992345 45 268.611539 45"></polygon>
                </g>
                <mask id="mask-2" fill="white">
                    <use xlink:href="#path-1"></use>
                </mask>
                <g id="Clip-14"></g>
                <path d="M59.2479059,53.8388641 C58.9825383,53.7904702 58.8498545,53.7671695 58.8056266,53.76 L59.2479059,72.82 C92.7178351,80.4608597 141.925831,107.52 141.925831,107.52 C135.819703,74.32 63.9519887,54.7135391 59.2479059,53.8388641 Z" id="Fill-20" fill="url(#linearGradient-3)" mask="url(#mask-2)"></path>
                <path d="M232.194549,53.8388641 C232.459917,53.7904702 232.592601,53.7671695 232.636829,53.76 L232.194549,72.82 C198.72462,80.4608597 149.516624,107.52 149.516624,107.52 C155.622752,74.32 227.490467,54.7135391 232.194549,53.8388641 Z" id="Fill-20-Copy" fill="url(#linearGradient-3)" mask="url(#mask-2)"></path>
                <path d="M244.264777,76.16 C243.664464,76.2330822 243.02863,76.3293369 242.401677,76.420244 C241.872407,76.4968912 241.245453,76.5913634 240.504831,76.705443 C208.592356,81.8408064 148.504263,113.194448 146.639386,113.902097 C144.776286,113.194448 84.6881927,81.8408064 52.7757175,76.705443 C52.0350952,76.5913634 51.4081415,76.4968912 50.8770958,76.420244 C50.2519182,76.3293369 49.614308,76.2330822 49.0157715,76.16 L49.0157715,144.390281 C33.5710429,147.816233 21.1012361,152.03896 12.6879795,156.8 C41.1051435,147.818016 90.4639812,141.871618 146.639386,141.871618 C202.816567,141.871618 252.173629,147.818016 280.590793,156.8 C272.177536,152.03896 259.709506,147.816233 244.264777,144.390281 L244.264777,76.16 Z" id="Fill-22" fill="#FEFEFE" mask="url(#mask-2)"></path>
            </g>
        </g>
    </g>
</svg>